<svg id="svg" version="1.1" xmlns="http://www.w3.org/2000/svg" xmlns:xlink="http://www.w3.org/1999/xlink" width="400" height="400" viewBox="0, 0, 400,400"><g id="svgg"><path id="path0" d="M135.991 124.009 C 135.209 124.791,135.200 125.606,135.200 195.984 L 135.200 267.167 140.016 271.984 C 143.639 275.606,145.084 276.800,145.847 276.800 C 146.600 276.800,147.886 277.831,150.839 280.800 C 153.795 283.773,155.078 284.800,155.833 284.800 C 157.118 284.800,163.200 290.724,163.200 291.976 C 163.200 292.688,163.449 292.800,165.034 292.800 C 166.785 292.800,167.001 292.935,169.839 295.800 C 172.645 298.634,174.124 299.429,174.499 298.304 C 174.686 297.742,176.091 298.909,175.915 299.479 C 175.687 300.213,182.821 306.800,183.844 306.800 C 184.601 306.800,185.880 307.825,188.839 310.800 C 192.121 314.100,193.027 314.800,194.021 314.800 C 194.732 314.800,195.321 315.050,195.460 315.411 C 195.962 316.720,197.147 316.898,198.150 315.816 C 198.696 315.227,199.531 314.800,200.138 314.800 C 200.930 314.800,202.145 313.833,205.161 310.800 C 208.120 307.825,209.399 306.800,210.156 306.800 C 211.179 306.800,218.313 300.213,218.085 299.479 C 217.909 298.909,219.314 297.742,219.501 298.304 C 219.876 299.429,221.355 298.634,224.161 295.800 C 226.999 292.935,227.215 292.800,228.966 292.800 C 230.551 292.800,230.800 292.688,230.800 291.976 C 230.800 290.724,236.882 284.800,238.167 284.800 C 238.922 284.800,240.205 283.773,243.161 280.800 C 246.114 277.831,247.400 276.800,248.153 276.800 C 248.916 276.800,250.361 275.606,253.984 271.984 L 258.800 267.167 258.800 195.984 C 258.800 125.065,258.797 124.797,257.991 123.991 C 257.113 123.113,255.918 123.395,255.460 124.589 C 255.321 124.950,254.732 125.200,254.021 125.200 C 253.027 125.200,252.121 125.900,248.839 129.200 C 245.870 132.186,244.602 133.200,243.839 133.200 C 243.076 133.200,241.808 134.214,238.839 137.200 C 235.863 140.193,234.603 141.200,233.835 141.200 C 233.089 141.200,231.999 142.019,229.839 144.200 C 227.679 146.381,226.588 147.200,225.842 147.200 C 225.075 147.200,223.814 148.208,220.839 151.200 C 217.870 154.186,216.602 155.200,215.839 155.200 C 215.076 155.200,213.808 156.214,210.839 159.200 C 207.867 162.189,206.602 163.200,205.837 163.200 C 205.073 163.200,203.823 164.197,200.908 167.132 L 197.003 171.064 193.093 167.132 C 190.179 164.202,188.923 163.200,188.161 163.200 C 187.398 163.200,186.130 162.186,183.161 159.200 C 180.192 156.214,178.924 155.200,178.161 155.200 C 177.398 155.200,176.130 154.186,173.161 151.200 C 170.186 148.208,168.925 147.200,168.158 147.200 C 167.412 147.200,166.321 146.381,164.161 144.200 C 162.001 142.019,160.911 141.200,160.165 141.200 C 159.397 141.200,158.137 140.193,155.161 137.200 C 152.192 134.214,150.924 133.200,150.161 133.200 C 149.398 133.200,148.130 132.186,145.161 129.200 C 141.919 125.940,140.966 125.200,140.006 125.200 C 139.262 125.200,138.680 124.923,138.425 124.447 C 137.810 123.297,136.871 123.129,135.991 124.009 " stroke="none" fill="#a4eccc" fill-rule="evenodd"></path><path id="path1" d="M135.338 123.817 C 134.991 124.721,135.302 124.769,136.100 123.933 C 136.692 123.313,136.706 123.200,136.187 123.200 C 135.851 123.200,135.468 123.478,135.338 123.817 M137.900 123.933 C 138.698 124.769,139.009 124.721,138.662 123.817 C 138.532 123.478,138.149 123.200,137.813 123.200 C 137.294 123.200,137.308 123.313,137.900 123.933 M255.338 123.817 C 254.991 124.721,255.302 124.769,256.100 123.933 C 256.692 123.313,256.706 123.200,256.187 123.200 C 255.851 123.200,255.468 123.478,255.338 123.817 M257.900 123.933 C 258.698 124.769,259.009 124.721,258.662 123.817 C 258.532 123.478,258.149 123.200,257.813 123.200 C 257.294 123.200,257.308 123.313,257.900 123.933 M141.900 125.933 C 142.698 126.769,143.009 126.721,142.662 125.817 C 142.532 125.478,142.149 125.200,141.813 125.200 C 141.294 125.200,141.308 125.313,141.900 125.933 M251.338 125.817 C 250.991 126.721,251.302 126.769,252.100 125.933 C 252.692 125.313,252.706 125.200,252.187 125.200 C 251.851 125.200,251.468 125.478,251.338 125.817 M143.900 127.933 C 144.698 128.769,145.009 128.721,144.662 127.817 C 144.532 127.478,144.149 127.200,143.813 127.200 C 143.294 127.200,143.308 127.313,143.900 127.933 M249.338 127.817 C 248.991 128.721,249.302 128.769,250.100 127.933 C 250.692 127.313,250.706 127.200,250.187 127.200 C 249.851 127.200,249.468 127.478,249.338 127.817 M145.900 129.933 C 146.698 130.769,147.009 130.721,146.662 129.817 C 146.532 129.478,146.149 129.200,145.813 129.200 C 145.294 129.200,145.308 129.313,145.900 129.933 M247.338 129.817 C 246.991 130.721,247.302 130.769,248.100 129.933 C 248.692 129.313,248.706 129.200,248.187 129.200 C 247.851 129.200,247.468 129.478,247.338 129.817 M147.900 131.933 C 148.698 132.769,149.009 132.721,148.662 131.817 C 148.532 131.478,148.149 131.200,147.813 131.200 C 147.294 131.200,147.308 131.313,147.900 131.933 M245.338 131.817 C 244.991 132.721,245.302 132.769,246.100 131.933 C 246.692 131.313,246.706 131.200,246.187 131.200 C 245.851 131.200,245.468 131.478,245.338 131.817 M151.900 133.933 C 152.698 134.769,153.009 134.721,152.662 133.817 C 152.532 133.478,152.149 133.200,151.813 133.200 C 151.294 133.200,151.308 133.313,151.900 133.933 M241.338 133.817 C 240.991 134.721,241.302 134.769,242.100 133.933 C 242.692 133.313,242.706 133.200,242.187 133.200 C 241.851 133.200,241.468 133.478,241.338 133.817 M153.900 135.933 C 154.698 136.769,155.009 136.721,154.662 135.817 C 154.532 135.478,154.149 135.200,153.813 135.200 C 153.294 135.200,153.308 135.313,153.900 135.933 M239.338 135.817 C 238.991 136.721,239.302 136.769,240.100 135.933 C 240.692 135.313,240.706 135.200,240.187 135.200 C 239.851 135.200,239.468 135.478,239.338 135.817 M155.900 137.933 C 156.698 138.769,157.009 138.721,156.662 137.817 C 156.532 137.478,156.149 137.200,155.813 137.200 C 155.294 137.200,155.308 137.313,155.900 137.933 M237.338 137.817 C 236.991 138.721,237.302 138.769,238.100 137.933 C 238.692 137.313,238.706 137.200,238.187 137.200 C 237.851 137.200,237.468 137.478,237.338 137.817 M157.900 139.933 C 158.698 140.769,159.009 140.721,158.662 139.817 C 158.532 139.478,158.149 139.200,157.813 139.200 C 157.294 139.200,157.308 139.313,157.900 139.933 M235.338 139.817 C 234.991 140.721,235.302 140.769,236.100 139.933 C 236.692 139.313,236.706 139.200,236.187 139.200 C 235.851 139.200,235.468 139.478,235.338 139.817 M161.900 141.933 C 162.698 142.769,163.009 142.721,162.662 141.817 C 162.532 141.478,162.149 141.200,161.813 141.200 C 161.294 141.200,161.308 141.313,161.900 141.933 M231.338 141.817 C 230.991 142.721,231.302 142.769,232.100 141.933 C 232.692 141.313,232.706 141.200,232.187 141.200 C 231.851 141.200,231.468 141.478,231.338 141.817 M163.900 143.933 C 164.698 144.769,165.009 144.721,164.662 143.817 C 164.532 143.478,164.149 143.200,163.813 143.200 C 163.294 143.200,163.308 143.313,163.900 143.933 M229.338 143.817 C 228.991 144.721,229.302 144.769,230.100 143.933 C 230.692 143.313,230.706 143.200,230.187 143.200 C 229.851 143.200,229.468 143.478,229.338 143.817 M165.900 145.933 C 166.698 146.769,167.009 146.721,166.662 145.817 C 166.532 145.478,166.149 145.200,165.813 145.200 C 165.294 145.200,165.308 145.313,165.900 145.933 M227.338 145.817 C 226.991 146.721,227.302 146.769,228.100 145.933 C 228.692 145.313,228.706 145.200,228.187 145.200 C 227.851 145.200,227.468 145.478,227.338 145.817 M169.900 147.933 C 170.698 148.769,171.009 148.721,170.662 147.817 C 170.532 147.478,170.149 147.200,169.813 147.200 C 169.294 147.200,169.308 147.313,169.900 147.933 M223.338 147.817 C 222.991 148.721,223.302 148.769,224.100 147.933 C 224.692 147.313,224.706 147.200,224.187 147.200 C 223.851 147.200,223.468 147.478,223.338 147.817 M171.900 149.933 C 172.698 150.769,173.009 150.721,172.662 149.817 C 172.532 149.478,172.149 149.200,171.813 149.200 C 171.294 149.200,171.308 149.313,171.900 149.933 M221.338 149.817 C 220.991 150.721,221.302 150.769,222.100 149.933 C 222.692 149.313,222.706 149.200,222.187 149.200 C 221.851 149.200,221.468 149.478,221.338 149.817 M173.900 151.933 C 174.698 152.769,175.009 152.721,174.662 151.817 C 174.532 151.478,174.149 151.200,173.813 151.200 C 173.294 151.200,173.308 151.313,173.900 151.933 M219.338 151.817 C 218.991 152.721,219.302 152.769,220.100 151.933 C 220.692 151.313,220.706 151.200,220.187 151.200 C 219.851 151.200,219.468 151.478,219.338 151.817 M175.900 153.933 C 176.698 154.769,177.009 154.721,176.662 153.817 C 176.532 153.478,176.149 153.200,175.813 153.200 C 175.294 153.200,175.308 153.313,175.900 153.933 M217.338 153.817 C 216.991 154.721,217.302 154.769,218.100 153.933 C 218.692 153.313,218.706 153.200,218.187 153.200 C 217.851 153.200,217.468 153.478,217.338 153.817 M179.900 155.933 C 180.698 156.769,181.009 156.721,180.662 155.817 C 180.532 155.478,180.149 155.200,179.813 155.200 C 179.294 155.200,179.308 155.313,179.900 155.933 M213.338 155.817 C 212.991 156.721,213.302 156.769,214.100 155.933 C 214.692 155.313,214.706 155.200,214.187 155.200 C 213.851 155.200,213.468 155.478,213.338 155.817 M181.900 157.933 C 182.698 158.769,183.009 158.721,182.662 157.817 C 182.532 157.478,182.149 157.200,181.813 157.200 C 181.294 157.200,181.308 157.313,181.900 157.933 M211.338 157.817 C 210.991 158.721,211.302 158.769,212.100 157.933 C 212.692 157.313,212.706 157.200,212.187 157.200 C 211.851 157.200,211.468 157.478,211.338 157.817 M183.900 159.933 C 184.698 160.769,185.009 160.721,184.662 159.817 C 184.532 159.478,184.149 159.200,183.813 159.200 C 183.294 159.200,183.308 159.313,183.900 159.933 M209.338 159.817 C 208.991 160.721,209.302 160.769,210.100 159.933 C 210.692 159.313,210.706 159.200,210.187 159.200 C 209.851 159.200,209.468 159.478,209.338 159.817 M185.900 161.933 C 186.698 162.769,187.009 162.721,186.662 161.817 C 186.532 161.478,186.149 161.200,185.813 161.200 C 185.294 161.200,185.308 161.313,185.900 161.933 M207.338 161.817 C 206.991 162.721,207.302 162.769,208.100 161.933 C 208.692 161.313,208.706 161.200,208.187 161.200 C 207.851 161.200,207.468 161.478,207.338 161.817 M189.900 163.933 C 190.698 164.769,191.009 164.721,190.662 163.817 C 190.532 163.478,190.149 163.200,189.813 163.200 C 189.294 163.200,189.308 163.313,189.900 163.933 M203.338 163.817 C 202.991 164.721,203.302 164.769,204.100 163.933 C 204.692 163.313,204.706 163.200,204.187 163.200 C 203.851 163.200,203.468 163.478,203.338 163.817 M191.900 165.933 C 192.698 166.769,193.009 166.721,192.662 165.817 C 192.532 165.478,192.149 165.200,191.813 165.200 C 191.294 165.200,191.308 165.313,191.900 165.933 M201.338 165.817 C 200.991 166.721,201.302 166.769,202.100 165.933 C 202.692 165.313,202.706 165.200,202.187 165.200 C 201.851 165.200,201.468 165.478,201.338 165.817 M193.900 167.933 C 194.698 168.769,195.009 168.721,194.662 167.817 C 194.532 167.478,194.149 167.200,193.813 167.200 C 193.294 167.200,193.308 167.313,193.900 167.933 M199.338 167.817 C 198.991 168.721,199.302 168.769,200.100 167.933 C 200.692 167.313,200.706 167.200,200.187 167.200 C 199.851 167.200,199.468 167.478,199.338 167.817 M195.900 169.933 C 196.698 170.769,197.009 170.721,196.662 169.817 C 196.532 169.478,196.149 169.200,195.813 169.200 C 195.294 169.200,195.308 169.313,195.900 169.933 M197.338 169.817 C 196.991 170.721,197.302 170.769,198.100 169.933 C 198.692 169.313,198.706 169.200,198.187 169.200 C 197.851 169.200,197.468 169.478,197.338 169.817 M135.200 267.813 C 135.200 268.149,135.478 268.532,135.817 268.662 C 136.721 269.009,136.769 268.698,135.933 267.900 C 135.313 267.308,135.200 267.294,135.200 267.813 M257.900 268.067 C 257.308 268.687,257.294 268.800,257.813 268.800 C 258.149 268.800,258.532 268.522,258.662 268.183 C 259.009 267.279,258.698 267.231,257.900 268.067 M137.200 269.813 C 137.200 270.149,137.478 270.532,137.817 270.662 C 138.721 271.009,138.769 270.698,137.933 269.900 C 137.313 269.308,137.200 269.294,137.200 269.813 M255.900 270.067 C 255.308 270.687,255.294 270.800,255.813 270.800 C 256.149 270.800,256.532 270.522,256.662 270.183 C 257.009 269.279,256.698 269.231,255.900 270.067 M139.200 271.813 C 139.200 272.149,139.478 272.532,139.817 272.662 C 140.721 273.009,140.769 272.698,139.933 271.900 C 139.313 271.308,139.200 271.294,139.200 271.813 M253.900 272.067 C 253.308 272.687,253.294 272.800,253.813 272.800 C 254.149 272.800,254.532 272.522,254.662 272.183 C 255.009 271.279,254.698 271.231,253.900 272.067 M141.200 273.813 C 141.200 274.149,141.478 274.532,141.817 274.662 C 142.721 275.009,142.769 274.698,141.933 273.900 C 141.313 273.308,141.200 273.294,141.200 273.813 M251.900 274.067 C 251.308 274.687,251.294 274.800,251.813 274.800 C 252.149 274.800,252.532 274.522,252.662 274.183 C 253.009 273.279,252.698 273.231,251.900 274.067 M143.200 275.813 C 143.200 276.149,143.478 276.532,143.817 276.662 C 144.721 277.009,144.769 276.698,143.933 275.900 C 143.313 275.308,143.200 275.294,143.200 275.813 M249.900 276.067 C 249.308 276.687,249.294 276.800,249.813 276.800 C 250.149 276.800,250.532 276.522,250.662 276.183 C 251.009 275.279,250.698 275.231,249.900 276.067 M147.200 277.813 C 147.200 278.149,147.478 278.532,147.817 278.662 C 148.721 279.009,148.769 278.698,147.933 277.900 C 147.313 277.308,147.200 277.294,147.200 277.813 M245.900 278.067 C 245.308 278.687,245.294 278.800,245.813 278.800 C 246.149 278.800,246.532 278.522,246.662 278.183 C 247.009 277.279,246.698 277.231,245.900 278.067 M149.200 279.813 C 149.200 280.149,149.478 280.532,149.817 280.662 C 150.721 281.009,150.769 280.698,149.933 279.900 C 149.313 279.308,149.200 279.294,149.200 279.813 M243.900 280.067 C 243.308 280.687,243.294 280.800,243.813 280.800 C 244.149 280.800,244.532 280.522,244.662 280.183 C 245.009 279.279,244.698 279.231,243.900 280.067 M151.200 281.813 C 151.200 282.149,151.478 282.532,151.817 282.662 C 152.721 283.009,152.769 282.698,151.933 281.900 C 151.313 281.308,151.200 281.294,151.200 281.813 M241.900 282.067 C 241.308 282.687,241.294 282.800,241.813 282.800 C 242.149 282.800,242.532 282.522,242.662 282.183 C 243.009 281.279,242.698 281.231,241.900 282.067 M153.200 283.813 C 153.200 284.149,153.478 284.532,153.817 284.662 C 154.721 285.009,154.769 284.698,153.933 283.900 C 153.313 283.308,153.200 283.294,153.200 283.813 M239.900 284.067 C 239.308 284.687,239.294 284.800,239.813 284.800 C 240.149 284.800,240.532 284.522,240.662 284.183 C 241.009 283.279,240.698 283.231,239.900 284.067 M157.200 285.813 C 157.200 286.149,157.478 286.532,157.817 286.662 C 158.721 287.009,158.769 286.698,157.933 285.900 C 157.313 285.308,157.200 285.294,157.200 285.813 M235.900 286.067 C 235.308 286.687,235.294 286.800,235.813 286.800 C 236.149 286.800,236.532 286.522,236.662 286.183 C 237.009 285.279,236.698 285.231,235.900 286.067 M159.200 287.813 C 159.200 288.149,159.478 288.532,159.817 288.662 C 160.721 289.009,160.769 288.698,159.933 287.900 C 159.313 287.308,159.200 287.294,159.200 287.813 M233.900 288.067 C 233.308 288.687,233.294 288.800,233.813 288.800 C 234.149 288.800,234.532 288.522,234.662 288.183 C 235.009 287.279,234.698 287.231,233.900 288.067 M161.200 289.813 C 161.200 290.149,161.478 290.532,161.817 290.662 C 162.721 291.009,162.769 290.698,161.933 289.900 C 161.313 289.308,161.200 289.294,161.200 289.813 M231.900 290.067 C 231.308 290.687,231.294 290.800,231.813 290.800 C 232.149 290.800,232.532 290.522,232.662 290.183 C 233.009 289.279,232.698 289.231,231.900 290.067 M167.200 293.813 C 167.200 294.149,167.478 294.532,167.817 294.662 C 168.721 295.009,168.769 294.698,167.933 293.900 C 167.313 293.308,167.200 293.294,167.200 293.813 M225.900 294.067 C 225.308 294.687,225.294 294.800,225.813 294.800 C 226.149 294.800,226.532 294.522,226.662 294.183 C 227.009 293.279,226.698 293.231,225.900 294.067 M169.200 295.813 C 169.200 296.149,169.478 296.532,169.817 296.662 C 170.721 297.009,170.769 296.698,169.933 295.900 C 169.313 295.308,169.200 295.294,169.200 295.813 M223.900 296.067 C 223.308 296.687,223.294 296.800,223.813 296.800 C 224.149 296.800,224.532 296.522,224.662 296.183 C 225.009 295.279,224.698 295.231,223.900 296.067 M171.200 297.813 C 171.200 298.149,171.478 298.532,171.817 298.662 C 172.721 299.009,172.769 298.698,171.933 297.900 C 171.313 297.308,171.200 297.294,171.200 297.813 M221.900 298.067 C 221.308 298.687,221.294 298.800,221.813 298.800 C 222.149 298.800,222.532 298.522,222.662 298.183 C 223.009 297.279,222.698 297.231,221.900 298.067 M174.289 298.513 C 174.018 299.218,175.368 300.800,176.241 300.800 C 176.897 300.800,176.891 300.750,176.176 300.170 C 175.749 299.824,175.625 299.655,175.900 299.794 C 176.599 300.148,176.524 299.865,175.653 298.861 C 174.789 297.865,174.560 297.806,174.289 298.513 M218.582 298.515 C 217.700 299.538,217.454 300.135,218.038 299.832 C 218.347 299.672,218.251 299.824,217.824 300.170 C 217.109 300.750,217.103 300.800,217.759 300.800 C 218.632 300.800,219.982 299.218,219.711 298.513 C 219.469 297.881,219.128 297.882,218.582 298.515 M177.200 301.813 C 177.200 302.149,177.478 302.532,177.817 302.662 C 178.721 303.009,178.769 302.698,177.933 301.900 C 177.313 301.308,177.200 301.294,177.200 301.813 M215.900 302.067 C 215.308 302.687,215.294 302.800,215.813 302.800 C 216.149 302.800,216.532 302.522,216.662 302.183 C 217.009 301.279,216.698 301.231,215.900 302.067 M179.200 303.813 C 179.200 304.149,179.478 304.532,179.817 304.662 C 180.721 305.009,180.769 304.698,179.933 303.900 C 179.313 303.308,179.200 303.294,179.200 303.813 M213.900 304.067 C 213.308 304.687,213.294 304.800,213.813 304.800 C 214.149 304.800,214.532 304.522,214.662 304.183 C 215.009 303.279,214.698 303.231,213.900 304.067 M181.200 305.813 C 181.200 306.149,181.478 306.532,181.817 306.662 C 182.721 307.009,182.769 306.698,181.933 305.900 C 181.313 305.308,181.200 305.294,181.200 305.813 M211.900 306.067 C 211.308 306.687,211.294 306.800,211.813 306.800 C 212.149 306.800,212.532 306.522,212.662 306.183 C 213.009 305.279,212.698 305.231,211.900 306.067 M185.200 307.813 C 185.200 308.149,185.478 308.532,185.817 308.662 C 186.721 309.009,186.769 308.698,185.933 307.900 C 185.313 307.308,185.200 307.294,185.200 307.813 M207.900 308.067 C 207.308 308.687,207.294 308.800,207.813 308.800 C 208.149 308.800,208.532 308.522,208.662 308.183 C 209.009 307.279,208.698 307.231,207.900 308.067 M187.200 309.813 C 187.200 310.149,187.478 310.532,187.817 310.662 C 188.721 311.009,188.769 310.698,187.933 309.900 C 187.313 309.308,187.200 309.294,187.200 309.813 M205.900 310.067 C 205.308 310.687,205.294 310.800,205.813 310.800 C 206.149 310.800,206.532 310.522,206.662 310.183 C 207.009 309.279,206.698 309.231,205.900 310.067 M189.200 311.813 C 189.200 312.149,189.478 312.532,189.817 312.662 C 190.721 313.009,190.769 312.698,189.933 311.900 C 189.313 311.308,189.200 311.294,189.200 311.813 M203.900 312.067 C 203.308 312.687,203.294 312.800,203.813 312.800 C 204.149 312.800,204.532 312.522,204.662 312.183 C 205.009 311.279,204.698 311.231,203.900 312.067 M191.200 313.813 C 191.200 314.149,191.478 314.532,191.817 314.662 C 192.721 315.009,192.769 314.698,191.933 313.900 C 191.313 313.308,191.200 313.294,191.200 313.813 M201.900 314.067 C 201.308 314.687,201.294 314.800,201.813 314.800 C 202.149 314.800,202.532 314.522,202.662 314.183 C 203.009 313.279,202.698 313.231,201.900 314.067 M195.200 315.813 C 195.200 316.149,195.478 316.532,195.817 316.662 C 196.721 317.009,196.769 316.698,195.933 315.900 C 195.313 315.308,195.200 315.294,195.200 315.813 M197.900 316.067 C 197.308 316.687,197.294 316.800,197.813 316.800 C 198.149 316.800,198.532 316.522,198.662 316.183 C 199.009 315.279,198.698 315.231,197.900 316.067 " stroke="none" fill="#a8eccc" fill-rule="evenodd"></path><path id="path2" d="M135.338 123.817 C 134.991 124.721,135.302 124.769,136.100 123.933 C 136.692 123.313,136.706 123.200,136.187 123.200 C 135.851 123.200,135.468 123.478,135.338 123.817 M137.900 123.933 C 138.698 124.769,139.009 124.721,138.662 123.817 C 138.532 123.478,138.149 123.200,137.813 123.200 C 137.294 123.200,137.308 123.313,137.900 123.933 M255.338 123.817 C 254.991 124.721,255.302 124.769,256.100 123.933 C 256.692 123.313,256.706 123.200,256.187 123.200 C 255.851 123.200,255.468 123.478,255.338 123.817 M257.900 123.933 C 258.698 124.769,259.009 124.721,258.662 123.817 C 258.532 123.478,258.149 123.200,257.813 123.200 C 257.294 123.200,257.308 123.313,257.900 123.933 M141.900 125.933 C 142.698 126.769,143.009 126.721,142.662 125.817 C 142.532 125.478,142.149 125.200,141.813 125.200 C 141.294 125.200,141.308 125.313,141.900 125.933 M251.338 125.817 C 250.991 126.721,251.302 126.769,252.100 125.933 C 252.692 125.313,252.706 125.200,252.187 125.200 C 251.851 125.200,251.468 125.478,251.338 125.817 M143.900 127.933 C 144.698 128.769,145.009 128.721,144.662 127.817 C 144.532 127.478,144.149 127.200,143.813 127.200 C 143.294 127.200,143.308 127.313,143.900 127.933 M249.338 127.817 C 248.991 128.721,249.302 128.769,250.100 127.933 C 250.692 127.313,250.706 127.200,250.187 127.200 C 249.851 127.200,249.468 127.478,249.338 127.817 M145.900 129.933 C 146.698 130.769,147.009 130.721,146.662 129.817 C 146.532 129.478,146.149 129.200,145.813 129.200 C 145.294 129.200,145.308 129.313,145.900 129.933 M247.338 129.817 C 246.991 130.721,247.302 130.769,248.100 129.933 C 248.692 129.313,248.706 129.200,248.187 129.200 C 247.851 129.200,247.468 129.478,247.338 129.817 M147.900 131.933 C 148.698 132.769,149.009 132.721,148.662 131.817 C 148.532 131.478,148.149 131.200,147.813 131.200 C 147.294 131.200,147.308 131.313,147.900 131.933 M245.338 131.817 C 244.991 132.721,245.302 132.769,246.100 131.933 C 246.692 131.313,246.706 131.200,246.187 131.200 C 245.851 131.200,245.468 131.478,245.338 131.817 M151.900 133.933 C 152.698 134.769,153.009 134.721,152.662 133.817 C 152.532 133.478,152.149 133.200,151.813 133.200 C 151.294 133.200,151.308 133.313,151.900 133.933 M241.338 133.817 C 240.991 134.721,241.302 134.769,242.100 133.933 C 242.692 133.313,242.706 133.200,242.187 133.200 C 241.851 133.200,241.468 133.478,241.338 133.817 M153.900 135.933 C 154.698 136.769,155.009 136.721,154.662 135.817 C 154.532 135.478,154.149 135.200,153.813 135.200 C 153.294 135.200,153.308 135.313,153.900 135.933 M239.338 135.817 C 238.991 136.721,239.302 136.769,240.100 135.933 C 240.692 135.313,240.706 135.200,240.187 135.200 C 239.851 135.200,239.468 135.478,239.338 135.817 M155.900 137.933 C 156.698 138.769,157.009 138.721,156.662 137.817 C 156.532 137.478,156.149 137.200,155.813 137.200 C 155.294 137.200,155.308 137.313,155.900 137.933 M237.338 137.817 C 236.991 138.721,237.302 138.769,238.100 137.933 C 238.692 137.313,238.706 137.200,238.187 137.200 C 237.851 137.200,237.468 137.478,237.338 137.817 M157.900 139.933 C 158.698 140.769,159.009 140.721,158.662 139.817 C 158.532 139.478,158.149 139.200,157.813 139.200 C 157.294 139.200,157.308 139.313,157.900 139.933 M235.338 139.817 C 234.991 140.721,235.302 140.769,236.100 139.933 C 236.692 139.313,236.706 139.200,236.187 139.200 C 235.851 139.200,235.468 139.478,235.338 139.817 M161.900 141.933 C 162.698 142.769,163.009 142.721,162.662 141.817 C 162.532 141.478,162.149 141.200,161.813 141.200 C 161.294 141.200,161.308 141.313,161.900 141.933 M231.338 141.817 C 230.991 142.721,231.302 142.769,232.100 141.933 C 232.692 141.313,232.706 141.200,232.187 141.200 C 231.851 141.200,231.468 141.478,231.338 141.817 M163.900 143.933 C 164.698 144.769,165.009 144.721,164.662 143.817 C 164.532 143.478,164.149 143.200,163.813 143.200 C 163.294 143.200,163.308 143.313,163.900 143.933 M229.338 143.817 C 228.991 144.721,229.302 144.769,230.100 143.933 C 230.692 143.313,230.706 143.200,230.187 143.200 C 229.851 143.200,229.468 143.478,229.338 143.817 M165.900 145.933 C 166.698 146.769,167.009 146.721,166.662 145.817 C 166.532 145.478,166.149 145.200,165.813 145.200 C 165.294 145.200,165.308 145.313,165.900 145.933 M227.338 145.817 C 226.991 146.721,227.302 146.769,228.100 145.933 C 228.692 145.313,228.706 145.200,228.187 145.200 C 227.851 145.200,227.468 145.478,227.338 145.817 M169.900 147.933 C 170.698 148.769,171.009 148.721,170.662 147.817 C 170.532 147.478,170.149 147.200,169.813 147.200 C 169.294 147.200,169.308 147.313,169.900 147.933 M223.338 147.817 C 222.991 148.721,223.302 148.769,224.100 147.933 C 224.692 147.313,224.706 147.200,224.187 147.200 C 223.851 147.200,223.468 147.478,223.338 147.817 M171.900 149.933 C 172.698 150.769,173.009 150.721,172.662 149.817 C 172.532 149.478,172.149 149.200,171.813 149.200 C 171.294 149.200,171.308 149.313,171.900 149.933 M221.338 149.817 C 220.991 150.721,221.302 150.769,222.100 149.933 C 222.692 149.313,222.706 149.200,222.187 149.200 C 221.851 149.200,221.468 149.478,221.338 149.817 M173.900 151.933 C 174.698 152.769,175.009 152.721,174.662 151.817 C 174.532 151.478,174.149 151.200,173.813 151.200 C 173.294 151.200,173.308 151.313,173.900 151.933 M219.338 151.817 C 218.991 152.721,219.302 152.769,220.100 151.933 C 220.692 151.313,220.706 151.200,220.187 151.200 C 219.851 151.200,219.468 151.478,219.338 151.817 M175.900 153.933 C 176.698 154.769,177.009 154.721,176.662 153.817 C 176.532 153.478,176.149 153.200,175.813 153.200 C 175.294 153.200,175.308 153.313,175.900 153.933 M217.338 153.817 C 216.991 154.721,217.302 154.769,218.100 153.933 C 218.692 153.313,218.706 153.200,218.187 153.200 C 217.851 153.200,217.468 153.478,217.338 153.817 M179.900 155.933 C 180.698 156.769,181.009 156.721,180.662 155.817 C 180.532 155.478,180.149 155.200,179.813 155.200 C 179.294 155.200,179.308 155.313,179.900 155.933 M213.338 155.817 C 212.991 156.721,213.302 156.769,214.100 155.933 C 214.692 155.313,214.706 155.200,214.187 155.200 C 213.851 155.200,213.468 155.478,213.338 155.817 M181.900 157.933 C 182.698 158.769,183.009 158.721,182.662 157.817 C 182.532 157.478,182.149 157.200,181.813 157.200 C 181.294 157.200,181.308 157.313,181.900 157.933 M211.338 157.817 C 210.991 158.721,211.302 158.769,212.100 157.933 C 212.692 157.313,212.706 157.200,212.187 157.200 C 211.851 157.200,211.468 157.478,211.338 157.817 M183.900 159.933 C 184.698 160.769,185.009 160.721,184.662 159.817 C 184.532 159.478,184.149 159.200,183.813 159.200 C 183.294 159.200,183.308 159.313,183.900 159.933 M209.338 159.817 C 208.991 160.721,209.302 160.769,210.100 159.933 C 210.692 159.313,210.706 159.200,210.187 159.200 C 209.851 159.200,209.468 159.478,209.338 159.817 M185.900 161.933 C 186.698 162.769,187.009 162.721,186.662 161.817 C 186.532 161.478,186.149 161.200,185.813 161.200 C 185.294 161.200,185.308 161.313,185.900 161.933 M207.338 161.817 C 206.991 162.721,207.302 162.769,208.100 161.933 C 208.692 161.313,208.706 161.200,208.187 161.200 C 207.851 161.200,207.468 161.478,207.338 161.817 M189.900 163.933 C 190.698 164.769,191.009 164.721,190.662 163.817 C 190.532 163.478,190.149 163.200,189.813 163.200 C 189.294 163.200,189.308 163.313,189.900 163.933 M203.338 163.817 C 202.991 164.721,203.302 164.769,204.100 163.933 C 204.692 163.313,204.706 163.200,204.187 163.200 C 203.851 163.200,203.468 163.478,203.338 163.817 M191.900 165.933 C 192.698 166.769,193.009 166.721,192.662 165.817 C 192.532 165.478,192.149 165.200,191.813 165.200 C 191.294 165.200,191.308 165.313,191.900 165.933 M201.338 165.817 C 200.991 166.721,201.302 166.769,202.100 165.933 C 202.692 165.313,202.706 165.200,202.187 165.200 C 201.851 165.200,201.468 165.478,201.338 165.817 M193.900 167.933 C 194.698 168.769,195.009 168.721,194.662 167.817 C 194.532 167.478,194.149 167.200,193.813 167.200 C 193.294 167.200,193.308 167.313,193.900 167.933 M199.338 167.817 C 198.991 168.721,199.302 168.769,200.100 167.933 C 200.692 167.313,200.706 167.200,200.187 167.200 C 199.851 167.200,199.468 167.478,199.338 167.817 M195.900 169.933 C 196.698 170.769,197.009 170.721,196.662 169.817 C 196.532 169.478,196.149 169.200,195.813 169.200 C 195.294 169.200,195.308 169.313,195.900 169.933 M197.338 169.817 C 196.991 170.721,197.302 170.769,198.100 169.933 C 198.692 169.313,198.706 169.200,198.187 169.200 C 197.851 169.200,197.468 169.478,197.338 169.817 M135.200 267.813 C 135.200 268.149,135.478 268.532,135.817 268.662 C 136.721 269.009,136.769 268.698,135.933 267.900 C 135.313 267.308,135.200 267.294,135.200 267.813 M257.900 268.067 C 257.308 268.687,257.294 268.800,257.813 268.800 C 258.149 268.800,258.532 268.522,258.662 268.183 C 259.009 267.279,258.698 267.231,257.900 268.067 M137.200 269.813 C 137.200 270.149,137.478 270.532,137.817 270.662 C 138.721 271.009,138.769 270.698,137.933 269.900 C 137.313 269.308,137.200 269.294,137.200 269.813 M255.900 270.067 C 255.308 270.687,255.294 270.800,255.813 270.800 C 256.149 270.800,256.532 270.522,256.662 270.183 C 257.009 269.279,256.698 269.231,255.900 270.067 M139.200 271.813 C 139.200 272.149,139.478 272.532,139.817 272.662 C 140.721 273.009,140.769 272.698,139.933 271.900 C 139.313 271.308,139.200 271.294,139.200 271.813 M253.900 272.067 C 253.308 272.687,253.294 272.800,253.813 272.800 C 254.149 272.800,254.532 272.522,254.662 272.183 C 255.009 271.279,254.698 271.231,253.900 272.067 M141.200 273.813 C 141.200 274.149,141.478 274.532,141.817 274.662 C 142.721 275.009,142.769 274.698,141.933 273.900 C 141.313 273.308,141.200 273.294,141.200 273.813 M251.900 274.067 C 251.308 274.687,251.294 274.800,251.813 274.800 C 252.149 274.800,252.532 274.522,252.662 274.183 C 253.009 273.279,252.698 273.231,251.900 274.067 M143.200 275.813 C 143.200 276.149,143.478 276.532,143.817 276.662 C 144.721 277.009,144.769 276.698,143.933 275.900 C 143.313 275.308,143.200 275.294,143.200 275.813 M249.900 276.067 C 249.308 276.687,249.294 276.800,249.813 276.800 C 250.149 276.800,250.532 276.522,250.662 276.183 C 251.009 275.279,250.698 275.231,249.900 276.067 M147.200 277.813 C 147.200 278.149,147.478 278.532,147.817 278.662 C 148.721 279.009,148.769 278.698,147.933 277.900 C 147.313 277.308,147.200 277.294,147.200 277.813 M245.900 278.067 C 245.308 278.687,245.294 278.800,245.813 278.800 C 246.149 278.800,246.532 278.522,246.662 278.183 C 247.009 277.279,246.698 277.231,245.900 278.067 M149.200 279.813 C 149.200 280.149,149.478 280.532,149.817 280.662 C 150.721 281.009,150.769 280.698,149.933 279.900 C 149.313 279.308,149.200 279.294,149.200 279.813 M243.900 280.067 C 243.308 280.687,243.294 280.800,243.813 280.800 C 244.149 280.800,244.532 280.522,244.662 280.183 C 245.009 279.279,244.698 279.231,243.900 280.067 M151.200 281.813 C 151.200 282.149,151.478 282.532,151.817 282.662 C 152.721 283.009,152.769 282.698,151.933 281.900 C 151.313 281.308,151.200 281.294,151.200 281.813 M241.900 282.067 C 241.308 282.687,241.294 282.800,241.813 282.800 C 242.149 282.800,242.532 282.522,242.662 282.183 C 243.009 281.279,242.698 281.231,241.900 282.067 M153.200 283.813 C 153.200 284.149,153.478 284.532,153.817 284.662 C 154.721 285.009,154.769 284.698,153.933 283.900 C 153.313 283.308,153.200 283.294,153.200 283.813 M239.900 284.067 C 239.308 284.687,239.294 284.800,239.813 284.800 C 240.149 284.800,240.532 284.522,240.662 284.183 C 241.009 283.279,240.698 283.231,239.900 284.067 M157.200 285.813 C 157.200 286.149,157.478 286.532,157.817 286.662 C 158.721 287.009,158.769 286.698,157.933 285.900 C 157.313 285.308,157.200 285.294,157.200 285.813 M235.900 286.067 C 235.308 286.687,235.294 286.800,235.813 286.800 C 236.149 286.800,236.532 286.522,236.662 286.183 C 237.009 285.279,236.698 285.231,235.900 286.067 M159.200 287.813 C 159.200 288.149,159.478 288.532,159.817 288.662 C 160.721 289.009,160.769 288.698,159.933 287.900 C 159.313 287.308,159.200 287.294,159.200 287.813 M233.900 288.067 C 233.308 288.687,233.294 288.800,233.813 288.800 C 234.149 288.800,234.532 288.522,234.662 288.183 C 235.009 287.279,234.698 287.231,233.900 288.067 M161.200 289.813 C 161.200 290.149,161.478 290.532,161.817 290.662 C 162.721 291.009,162.769 290.698,161.933 289.900 C 161.313 289.308,161.200 289.294,161.200 289.813 M231.900 290.067 C 231.308 290.687,231.294 290.800,231.813 290.800 C 232.149 290.800,232.532 290.522,232.662 290.183 C 233.009 289.279,232.698 289.231,231.900 290.067 M167.200 293.813 C 167.200 294.149,167.478 294.532,167.817 294.662 C 168.721 295.009,168.769 294.698,167.933 293.900 C 167.313 293.308,167.200 293.294,167.200 293.813 M225.900 294.067 C 225.308 294.687,225.294 294.800,225.813 294.800 C 226.149 294.800,226.532 294.522,226.662 294.183 C 227.009 293.279,226.698 293.231,225.900 294.067 M169.200 295.813 C 169.200 296.149,169.478 296.532,169.817 296.662 C 170.721 297.009,170.769 296.698,169.933 295.900 C 169.313 295.308,169.200 295.294,169.200 295.813 M223.900 296.067 C 223.308 296.687,223.294 296.800,223.813 296.800 C 224.149 296.800,224.532 296.522,224.662 296.183 C 225.009 295.279,224.698 295.231,223.900 296.067 M171.200 297.813 C 171.200 298.149,171.478 298.532,171.817 298.662 C 172.721 299.009,172.769 298.698,171.933 297.900 C 171.313 297.308,171.200 297.294,171.200 297.813 M221.900 298.067 C 221.308 298.687,221.294 298.800,221.813 298.800 C 222.149 298.800,222.532 298.522,222.662 298.183 C 223.009 297.279,222.698 297.231,221.900 298.067 M174.289 298.513 C 174.018 299.218,175.368 300.800,176.241 300.800 C 176.897 300.800,176.891 300.750,176.176 300.170 C 175.749 299.824,175.625 299.655,175.900 299.794 C 176.599 300.148,176.524 299.865,175.653 298.861 C 174.789 297.865,174.560 297.806,174.289 298.513 M218.582 298.515 C 217.700 299.538,217.454 300.135,218.038 299.832 C 218.347 299.672,218.251 299.824,217.824 300.170 C 217.109 300.750,217.103 300.800,217.759 300.800 C 218.632 300.800,219.982 299.218,219.711 298.513 C 219.469 297.881,219.128 297.882,218.582 298.515 M177.200 301.813 C 177.200 302.149,177.478 302.532,177.817 302.662 C 178.721 303.009,178.769 302.698,177.933 301.900 C 177.313 301.308,177.200 301.294,177.200 301.813 M215.900 302.067 C 215.308 302.687,215.294 302.800,215.813 302.800 C 216.149 302.800,216.532 302.522,216.662 302.183 C 217.009 301.279,216.698 301.231,215.900 302.067 M179.200 303.813 C 179.200 304.149,179.478 304.532,179.817 304.662 C 180.721 305.009,180.769 304.698,179.933 303.900 C 179.313 303.308,179.200 303.294,179.200 303.813 M213.900 304.067 C 213.308 304.687,213.294 304.800,213.813 304.800 C 214.149 304.800,214.532 304.522,214.662 304.183 C 215.009 303.279,214.698 303.231,213.900 304.067 M181.200 305.813 C 181.200 306.149,181.478 306.532,181.817 306.662 C 182.721 307.009,182.769 306.698,181.933 305.900 C 181.313 305.308,181.200 305.294,181.200 305.813 M211.900 306.067 C 211.308 306.687,211.294 306.800,211.813 306.800 C 212.149 306.800,212.532 306.522,212.662 306.183 C 213.009 305.279,212.698 305.231,211.900 306.067 M185.200 307.813 C 185.200 308.149,185.478 308.532,185.817 308.662 C 186.721 309.009,186.769 308.698,185.933 307.900 C 185.313 307.308,185.200 307.294,185.200 307.813 M207.900 308.067 C 207.308 308.687,207.294 308.800,207.813 308.800 C 208.149 308.800,208.532 308.522,208.662 308.183 C 209.009 307.279,208.698 307.231,207.900 308.067 M187.200 309.813 C 187.200 310.149,187.478 310.532,187.817 310.662 C 188.721 311.009,188.769 310.698,187.933 309.900 C 187.313 309.308,187.200 309.294,187.200 309.813 M205.900 310.067 C 205.308 310.687,205.294 310.800,205.813 310.800 C 206.149 310.800,206.532 310.522,206.662 310.183 C 207.009 309.279,206.698 309.231,205.900 310.067 M189.200 311.813 C 189.200 312.149,189.478 312.532,189.817 312.662 C 190.721 313.009,190.769 312.698,189.933 311.900 C 189.313 311.308,189.200 311.294,189.200 311.813 M203.900 312.067 C 203.308 312.687,203.294 312.800,203.813 312.800 C 204.149 312.800,204.532 312.522,204.662 312.183 C 205.009 311.279,204.698 311.231,203.900 312.067 M191.200 313.813 C 191.200 314.149,191.478 314.532,191.817 314.662 C 192.721 315.009,192.769 314.698,191.933 313.900 C 191.313 313.308,191.200 313.294,191.200 313.813 M201.900 314.067 C 201.308 314.687,201.294 314.800,201.813 314.800 C 202.149 314.800,202.532 314.522,202.662 314.183 C 203.009 313.279,202.698 313.231,201.900 314.067 M195.200 315.813 C 195.200 316.149,195.478 316.532,195.817 316.662 C 196.721 317.009,196.769 316.698,195.933 315.900 C 195.313 315.308,195.200 315.294,195.200 315.813 M197.900 316.067 C 197.308 316.687,197.294 316.800,197.813 316.800 C 198.149 316.800,198.532 316.522,198.662 316.183 C 199.009 315.279,198.698 315.231,197.900 316.067 " stroke="none" fill="#a8eccc" fill-rule="evenodd"></path><path id="path3" d="M135.338 123.817 C 134.991 124.721,135.302 124.769,136.100 123.933 C 136.692 123.313,136.706 123.200,136.187 123.200 C 135.851 123.200,135.468 123.478,135.338 123.817 M137.900 123.933 C 138.698 124.769,139.009 124.721,138.662 123.817 C 138.532 123.478,138.149 123.200,137.813 123.200 C 137.294 123.200,137.308 123.313,137.900 123.933 M255.338 123.817 C 254.991 124.721,255.302 124.769,256.100 123.933 C 256.692 123.313,256.706 123.200,256.187 123.200 C 255.851 123.200,255.468 123.478,255.338 123.817 M257.900 123.933 C 258.698 124.769,259.009 124.721,258.662 123.817 C 258.532 123.478,258.149 123.200,257.813 123.200 C 257.294 123.200,257.308 123.313,257.900 123.933 M141.900 125.933 C 142.698 126.769,143.009 126.721,142.662 125.817 C 142.532 125.478,142.149 125.200,141.813 125.200 C 141.294 125.200,141.308 125.313,141.900 125.933 M251.338 125.817 C 250.991 126.721,251.302 126.769,252.100 125.933 C 252.692 125.313,252.706 125.200,252.187 125.200 C 251.851 125.200,251.468 125.478,251.338 125.817 M143.900 127.933 C 144.698 128.769,145.009 128.721,144.662 127.817 C 144.532 127.478,144.149 127.200,143.813 127.200 C 143.294 127.200,143.308 127.313,143.900 127.933 M249.338 127.817 C 248.991 128.721,249.302 128.769,250.100 127.933 C 250.692 127.313,250.706 127.200,250.187 127.200 C 249.851 127.200,249.468 127.478,249.338 127.817 M145.900 129.933 C 146.698 130.769,147.009 130.721,146.662 129.817 C 146.532 129.478,146.149 129.200,145.813 129.200 C 145.294 129.200,145.308 129.313,145.900 129.933 M247.338 129.817 C 246.991 130.721,247.302 130.769,248.100 129.933 C 248.692 129.313,248.706 129.200,248.187 129.200 C 247.851 129.200,247.468 129.478,247.338 129.817 M147.900 131.933 C 148.698 132.769,149.009 132.721,148.662 131.817 C 148.532 131.478,148.149 131.200,147.813 131.200 C 147.294 131.200,147.308 131.313,147.900 131.933 M245.338 131.817 C 244.991 132.721,245.302 132.769,246.100 131.933 C 246.692 131.313,246.706 131.200,246.187 131.200 C 245.851 131.200,245.468 131.478,245.338 131.817 M151.900 133.933 C 152.698 134.769,153.009 134.721,152.662 133.817 C 152.532 133.478,152.149 133.200,151.813 133.200 C 151.294 133.200,151.308 133.313,151.900 133.933 M241.338 133.817 C 240.991 134.721,241.302 134.769,242.100 133.933 C 242.692 133.313,242.706 133.200,242.187 133.200 C 241.851 133.200,241.468 133.478,241.338 133.817 M153.900 135.933 C 154.698 136.769,155.009 136.721,154.662 135.817 C 154.532 135.478,154.149 135.200,153.813 135.200 C 153.294 135.200,153.308 135.313,153.900 135.933 M239.338 135.817 C 238.991 136.721,239.302 136.769,240.100 135.933 C 240.692 135.313,240.706 135.200,240.187 135.200 C 239.851 135.200,239.468 135.478,239.338 135.817 M155.900 137.933 C 156.698 138.769,157.009 138.721,156.662 137.817 C 156.532 137.478,156.149 137.200,155.813 137.200 C 155.294 137.200,155.308 137.313,155.900 137.933 M237.338 137.817 C 236.991 138.721,237.302 138.769,238.100 137.933 C 238.692 137.313,238.706 137.200,238.187 137.200 C 237.851 137.200,237.468 137.478,237.338 137.817 M157.900 139.933 C 158.698 140.769,159.009 140.721,158.662 139.817 C 158.532 139.478,158.149 139.200,157.813 139.200 C 157.294 139.200,157.308 139.313,157.900 139.933 M235.338 139.817 C 234.991 140.721,235.302 140.769,236.100 139.933 C 236.692 139.313,236.706 139.200,236.187 139.200 C 235.851 139.200,235.468 139.478,235.338 139.817 M161.900 141.933 C 162.698 142.769,163.009 142.721,162.662 141.817 C 162.532 141.478,162.149 141.200,161.813 141.200 C 161.294 141.200,161.308 141.313,161.900 141.933 M231.338 141.817 C 230.991 142.721,231.302 142.769,232.100 141.933 C 232.692 141.313,232.706 141.200,232.187 141.200 C 231.851 141.200,231.468 141.478,231.338 141.817 M163.900 143.933 C 164.698 144.769,165.009 144.721,164.662 143.817 C 164.532 143.478,164.149 143.200,163.813 143.200 C 163.294 143.200,163.308 143.313,163.900 143.933 M229.338 143.817 C 228.991 144.721,229.302 144.769,230.100 143.933 C 230.692 143.313,230.706 143.200,230.187 143.200 C 229.851 143.200,229.468 143.478,229.338 143.817 M165.900 145.933 C 166.698 146.769,167.009 146.721,166.662 145.817 C 166.532 145.478,166.149 145.200,165.813 145.200 C 165.294 145.200,165.308 145.313,165.900 145.933 M227.338 145.817 C 226.991 146.721,227.302 146.769,228.100 145.933 C 228.692 145.313,228.706 145.200,228.187 145.200 C 227.851 145.200,227.468 145.478,227.338 145.817 M169.900 147.933 C 170.698 148.769,171.009 148.721,170.662 147.817 C 170.532 147.478,170.149 147.200,169.813 147.200 C 169.294 147.200,169.308 147.313,169.900 147.933 M223.338 147.817 C 222.991 148.721,223.302 148.769,224.100 147.933 C 224.692 147.313,224.706 147.200,224.187 147.200 C 223.851 147.200,223.468 147.478,223.338 147.817 M171.900 149.933 C 172.698 150.769,173.009 150.721,172.662 149.817 C 172.532 149.478,172.149 149.200,171.813 149.200 C 171.294 149.200,171.308 149.313,171.900 149.933 M221.338 149.817 C 220.991 150.721,221.302 150.769,222.100 149.933 C 222.692 149.313,222.706 149.200,222.187 149.200 C 221.851 149.200,221.468 149.478,221.338 149.817 M173.900 151.933 C 174.698 152.769,175.009 152.721,174.662 151.817 C 174.532 151.478,174.149 151.200,173.813 151.200 C 173.294 151.200,173.308 151.313,173.900 151.933 M219.338 151.817 C 218.991 152.721,219.302 152.769,220.100 151.933 C 220.692 151.313,220.706 151.200,220.187 151.200 C 219.851 151.200,219.468 151.478,219.338 151.817 M175.900 153.933 C 176.698 154.769,177.009 154.721,176.662 153.817 C 176.532 153.478,176.149 153.200,175.813 153.200 C 175.294 153.200,175.308 153.313,175.900 153.933 M217.338 153.817 C 216.991 154.721,217.302 154.769,218.100 153.933 C 218.692 153.313,218.706 153.200,218.187 153.200 C 217.851 153.200,217.468 153.478,217.338 153.817 M179.900 155.933 C 180.698 156.769,181.009 156.721,180.662 155.817 C 180.532 155.478,180.149 155.200,179.813 155.200 C 179.294 155.200,179.308 155.313,179.900 155.933 M213.338 155.817 C 212.991 156.721,213.302 156.769,214.100 155.933 C 214.692 155.313,214.706 155.200,214.187 155.200 C 213.851 155.200,213.468 155.478,213.338 155.817 M181.900 157.933 C 182.698 158.769,183.009 158.721,182.662 157.817 C 182.532 157.478,182.149 157.200,181.813 157.200 C 181.294 157.200,181.308 157.313,181.900 157.933 M211.338 157.817 C 210.991 158.721,211.302 158.769,212.100 157.933 C 212.692 157.313,212.706 157.200,212.187 157.200 C 211.851 157.200,211.468 157.478,211.338 157.817 M183.900 159.933 C 184.698 160.769,185.009 160.721,184.662 159.817 C 184.532 159.478,184.149 159.200,183.813 159.200 C 183.294 159.200,183.308 159.313,183.900 159.933 M209.338 159.817 C 208.991 160.721,209.302 160.769,210.100 159.933 C 210.692 159.313,210.706 159.200,210.187 159.200 C 209.851 159.200,209.468 159.478,209.338 159.817 M185.900 161.933 C 186.698 162.769,187.009 162.721,186.662 161.817 C 186.532 161.478,186.149 161.200,185.813 161.200 C 185.294 161.200,185.308 161.313,185.900 161.933 M207.338 161.817 C 206.991 162.721,207.302 162.769,208.100 161.933 C 208.692 161.313,208.706 161.200,208.187 161.200 C 207.851 161.200,207.468 161.478,207.338 161.817 M189.900 163.933 C 190.698 164.769,191.009 164.721,190.662 163.817 C 190.532 163.478,190.149 163.200,189.813 163.200 C 189.294 163.200,189.308 163.313,189.900 163.933 M203.338 163.817 C 202.991 164.721,203.302 164.769,204.100 163.933 C 204.692 163.313,204.706 163.200,204.187 163.200 C 203.851 163.200,203.468 163.478,203.338 163.817 M191.900 165.933 C 192.698 166.769,193.009 166.721,192.662 165.817 C 192.532 165.478,192.149 165.200,191.813 165.200 C 191.294 165.200,191.308 165.313,191.900 165.933 M201.338 165.817 C 200.991 166.721,201.302 166.769,202.100 165.933 C 202.692 165.313,202.706 165.200,202.187 165.200 C 201.851 165.200,201.468 165.478,201.338 165.817 M193.900 167.933 C 194.698 168.769,195.009 168.721,194.662 167.817 C 194.532 167.478,194.149 167.200,193.813 167.200 C 193.294 167.200,193.308 167.313,193.900 167.933 M199.338 167.817 C 198.991 168.721,199.302 168.769,200.100 167.933 C 200.692 167.313,200.706 167.200,200.187 167.200 C 199.851 167.200,199.468 167.478,199.338 167.817 M195.900 169.933 C 196.698 170.769,197.009 170.721,196.662 169.817 C 196.532 169.478,196.149 169.200,195.813 169.200 C 195.294 169.200,195.308 169.313,195.900 169.933 M197.338 169.817 C 196.991 170.721,197.302 170.769,198.100 169.933 C 198.692 169.313,198.706 169.200,198.187 169.200 C 197.851 169.200,197.468 169.478,197.338 169.817 M135.200 267.813 C 135.200 268.149,135.478 268.532,135.817 268.662 C 136.721 269.009,136.769 268.698,135.933 267.900 C 135.313 267.308,135.200 267.294,135.200 267.813 M257.900 268.067 C 257.308 268.687,257.294 268.800,257.813 268.800 C 258.149 268.800,258.532 268.522,258.662 268.183 C 259.009 267.279,258.698 267.231,257.900 268.067 M137.200 269.813 C 137.200 270.149,137.478 270.532,137.817 270.662 C 138.721 271.009,138.769 270.698,137.933 269.900 C 137.313 269.308,137.200 269.294,137.200 269.813 M255.900 270.067 C 255.308 270.687,255.294 270.800,255.813 270.800 C 256.149 270.800,256.532 270.522,256.662 270.183 C 257.009 269.279,256.698 269.231,255.900 270.067 M139.200 271.813 C 139.200 272.149,139.478 272.532,139.817 272.662 C 140.721 273.009,140.769 272.698,139.933 271.900 C 139.313 271.308,139.200 271.294,139.200 271.813 M253.900 272.067 C 253.308 272.687,253.294 272.800,253.813 272.800 C 254.149 272.800,254.532 272.522,254.662 272.183 C 255.009 271.279,254.698 271.231,253.900 272.067 M141.200 273.813 C 141.200 274.149,141.478 274.532,141.817 274.662 C 142.721 275.009,142.769 274.698,141.933 273.900 C 141.313 273.308,141.200 273.294,141.200 273.813 M251.900 274.067 C 251.308 274.687,251.294 274.800,251.813 274.800 C 252.149 274.800,252.532 274.522,252.662 274.183 C 253.009 273.279,252.698 273.231,251.900 274.067 M143.200 275.813 C 143.200 276.149,143.478 276.532,143.817 276.662 C 144.721 277.009,144.769 276.698,143.933 275.900 C 143.313 275.308,143.200 275.294,143.200 275.813 M249.900 276.067 C 249.308 276.687,249.294 276.800,249.813 276.800 C 250.149 276.800,250.532 276.522,250.662 276.183 C 251.009 275.279,250.698 275.231,249.900 276.067 M147.200 277.813 C 147.200 278.149,147.478 278.532,147.817 278.662 C 148.721 279.009,148.769 278.698,147.933 277.900 C 147.313 277.308,147.200 277.294,147.200 277.813 M245.900 278.067 C 245.308 278.687,245.294 278.800,245.813 278.800 C 246.149 278.800,246.532 278.522,246.662 278.183 C 247.009 277.279,246.698 277.231,245.900 278.067 M149.200 279.813 C 149.200 280.149,149.478 280.532,149.817 280.662 C 150.721 281.009,150.769 280.698,149.933 279.900 C 149.313 279.308,149.200 279.294,149.200 279.813 M243.900 280.067 C 243.308 280.687,243.294 280.800,243.813 280.800 C 244.149 280.800,244.532 280.522,244.662 280.183 C 245.009 279.279,244.698 279.231,243.900 280.067 M151.200 281.813 C 151.200 282.149,151.478 282.532,151.817 282.662 C 152.721 283.009,152.769 282.698,151.933 281.900 C 151.313 281.308,151.200 281.294,151.200 281.813 M241.900 282.067 C 241.308 282.687,241.294 282.800,241.813 282.800 C 242.149 282.800,242.532 282.522,242.662 282.183 C 243.009 281.279,242.698 281.231,241.900 282.067 M153.200 283.813 C 153.200 284.149,153.478 284.532,153.817 284.662 C 154.721 285.009,154.769 284.698,153.933 283.900 C 153.313 283.308,153.200 283.294,153.200 283.813 M239.900 284.067 C 239.308 284.687,239.294 284.800,239.813 284.800 C 240.149 284.800,240.532 284.522,240.662 284.183 C 241.009 283.279,240.698 283.231,239.900 284.067 M157.200 285.813 C 157.200 286.149,157.478 286.532,157.817 286.662 C 158.721 287.009,158.769 286.698,157.933 285.900 C 157.313 285.308,157.200 285.294,157.200 285.813 M235.900 286.067 C 235.308 286.687,235.294 286.800,235.813 286.800 C 236.149 286.800,236.532 286.522,236.662 286.183 C 237.009 285.279,236.698 285.231,235.900 286.067 M159.200 287.813 C 159.200 288.149,159.478 288.532,159.817 288.662 C 160.721 289.009,160.769 288.698,159.933 287.900 C 159.313 287.308,159.200 287.294,159.200 287.813 M233.900 288.067 C 233.308 288.687,233.294 288.800,233.813 288.800 C 234.149 288.800,234.532 288.522,234.662 288.183 C 235.009 287.279,234.698 287.231,233.900 288.067 M161.200 289.813 C 161.200 290.149,161.478 290.532,161.817 290.662 C 162.721 291.009,162.769 290.698,161.933 289.900 C 161.313 289.308,161.200 289.294,161.200 289.813 M231.900 290.067 C 231.308 290.687,231.294 290.800,231.813 290.800 C 232.149 290.800,232.532 290.522,232.662 290.183 C 233.009 289.279,232.698 289.231,231.900 290.067 M167.200 293.813 C 167.200 294.149,167.478 294.532,167.817 294.662 C 168.721 295.009,168.769 294.698,167.933 293.900 C 167.313 293.308,167.200 293.294,167.200 293.813 M225.900 294.067 C 225.308 294.687,225.294 294.800,225.813 294.800 C 226.149 294.800,226.532 294.522,226.662 294.183 C 227.009 293.279,226.698 293.231,225.900 294.067 M169.200 295.813 C 169.200 296.149,169.478 296.532,169.817 296.662 C 170.721 297.009,170.769 296.698,169.933 295.900 C 169.313 295.308,169.200 295.294,169.200 295.813 M223.900 296.067 C 223.308 296.687,223.294 296.800,223.813 296.800 C 224.149 296.800,224.532 296.522,224.662 296.183 C 225.009 295.279,224.698 295.231,223.900 296.067 M171.200 297.813 C 171.200 298.149,171.478 298.532,171.817 298.662 C 172.721 299.009,172.769 298.698,171.933 297.900 C 171.313 297.308,171.200 297.294,171.200 297.813 M221.900 298.067 C 221.308 298.687,221.294 298.800,221.813 298.800 C 222.149 298.800,222.532 298.522,222.662 298.183 C 223.009 297.279,222.698 297.231,221.900 298.067 M174.289 298.513 C 174.018 299.218,175.368 300.800,176.241 300.800 C 176.897 300.800,176.891 300.750,176.176 300.170 C 175.749 299.824,175.625 299.655,175.900 299.794 C 176.599 300.148,176.524 299.865,175.653 298.861 C 174.789 297.865,174.560 297.806,174.289 298.513 M218.582 298.515 C 217.700 299.538,217.454 300.135,218.038 299.832 C 218.347 299.672,218.251 299.824,217.824 300.170 C 217.109 300.750,217.103 300.800,217.759 300.800 C 218.632 300.800,219.982 299.218,219.711 298.513 C 219.469 297.881,219.128 297.882,218.582 298.515 M177.200 301.813 C 177.200 302.149,177.478 302.532,177.817 302.662 C 178.721 303.009,178.769 302.698,177.933 301.900 C 177.313 301.308,177.200 301.294,177.200 301.813 M215.900 302.067 C 215.308 302.687,215.294 302.800,215.813 302.800 C 216.149 302.800,216.532 302.522,216.662 302.183 C 217.009 301.279,216.698 301.231,215.900 302.067 M179.200 303.813 C 179.200 304.149,179.478 304.532,179.817 304.662 C 180.721 305.009,180.769 304.698,179.933 303.900 C 179.313 303.308,179.200 303.294,179.200 303.813 M213.900 304.067 C 213.308 304.687,213.294 304.800,213.813 304.800 C 214.149 304.800,214.532 304.522,214.662 304.183 C 215.009 303.279,214.698 303.231,213.900 304.067 M181.200 305.813 C 181.200 306.149,181.478 306.532,181.817 306.662 C 182.721 307.009,182.769 306.698,181.933 305.900 C 181.313 305.308,181.200 305.294,181.200 305.813 M211.900 306.067 C 211.308 306.687,211.294 306.800,211.813 306.800 C 212.149 306.800,212.532 306.522,212.662 306.183 C 213.009 305.279,212.698 305.231,211.900 306.067 M185.200 307.813 C 185.200 308.149,185.478 308.532,185.817 308.662 C 186.721 309.009,186.769 308.698,185.933 307.900 C 185.313 307.308,185.200 307.294,185.200 307.813 M207.900 308.067 C 207.308 308.687,207.294 308.800,207.813 308.800 C 208.149 308.800,208.532 308.522,208.662 308.183 C 209.009 307.279,208.698 307.231,207.900 308.067 M187.200 309.813 C 187.200 310.149,187.478 310.532,187.817 310.662 C 188.721 311.009,188.769 310.698,187.933 309.900 C 187.313 309.308,187.200 309.294,187.200 309.813 M205.900 310.067 C 205.308 310.687,205.294 310.800,205.813 310.800 C 206.149 310.800,206.532 310.522,206.662 310.183 C 207.009 309.279,206.698 309.231,205.900 310.067 M189.200 311.813 C 189.200 312.149,189.478 312.532,189.817 312.662 C 190.721 313.009,190.769 312.698,189.933 311.900 C 189.313 311.308,189.200 311.294,189.200 311.813 M203.900 312.067 C 203.308 312.687,203.294 312.800,203.813 312.800 C 204.149 312.800,204.532 312.522,204.662 312.183 C 205.009 311.279,204.698 311.231,203.900 312.067 M191.200 313.813 C 191.200 314.149,191.478 314.532,191.817 314.662 C 192.721 315.009,192.769 314.698,191.933 313.900 C 191.313 313.308,191.200 313.294,191.200 313.813 M201.900 314.067 C 201.308 314.687,201.294 314.800,201.813 314.800 C 202.149 314.800,202.532 314.522,202.662 314.183 C 203.009 313.279,202.698 313.231,201.900 314.067 M195.200 315.813 C 195.200 316.149,195.478 316.532,195.817 316.662 C 196.721 317.009,196.769 316.698,195.933 315.900 C 195.313 315.308,195.200 315.294,195.200 315.813 M197.900 316.067 C 197.308 316.687,197.294 316.800,197.813 316.800 C 198.149 316.800,198.532 316.522,198.662 316.183 C 199.009 315.279,198.698 315.231,197.900 316.067 " stroke="none" fill="#a8eccc" fill-rule="evenodd"></path><path id="path4" d="M135.338 123.817 C 134.991 124.721,135.302 124.769,136.100 123.933 C 136.692 123.313,136.706 123.200,136.187 123.200 C 135.851 123.200,135.468 123.478,135.338 123.817 M137.900 123.933 C 138.698 124.769,139.009 124.721,138.662 123.817 C 138.532 123.478,138.149 123.200,137.813 123.200 C 137.294 123.200,137.308 123.313,137.900 123.933 M255.338 123.817 C 254.991 124.721,255.302 124.769,256.100 123.933 C 256.692 123.313,256.706 123.200,256.187 123.200 C 255.851 123.200,255.468 123.478,255.338 123.817 M257.900 123.933 C 258.698 124.769,259.009 124.721,258.662 123.817 C 258.532 123.478,258.149 123.200,257.813 123.200 C 257.294 123.200,257.308 123.313,257.900 123.933 M141.900 125.933 C 142.698 126.769,143.009 126.721,142.662 125.817 C 142.532 125.478,142.149 125.200,141.813 125.200 C 141.294 125.200,141.308 125.313,141.900 125.933 M251.338 125.817 C 250.991 126.721,251.302 126.769,252.100 125.933 C 252.692 125.313,252.706 125.200,252.187 125.200 C 251.851 125.200,251.468 125.478,251.338 125.817 M143.900 127.933 C 144.698 128.769,145.009 128.721,144.662 127.817 C 144.532 127.478,144.149 127.200,143.813 127.200 C 143.294 127.200,143.308 127.313,143.900 127.933 M249.338 127.817 C 248.991 128.721,249.302 128.769,250.100 127.933 C 250.692 127.313,250.706 127.200,250.187 127.200 C 249.851 127.200,249.468 127.478,249.338 127.817 M145.900 129.933 C 146.698 130.769,147.009 130.721,146.662 129.817 C 146.532 129.478,146.149 129.200,145.813 129.200 C 145.294 129.200,145.308 129.313,145.900 129.933 M247.338 129.817 C 246.991 130.721,247.302 130.769,248.100 129.933 C 248.692 129.313,248.706 129.200,248.187 129.200 C 247.851 129.200,247.468 129.478,247.338 129.817 M147.900 131.933 C 148.698 132.769,149.009 132.721,148.662 131.817 C 148.532 131.478,148.149 131.200,147.813 131.200 C 147.294 131.200,147.308 131.313,147.900 131.933 M245.338 131.817 C 244.991 132.721,245.302 132.769,246.100 131.933 C 246.692 131.313,246.706 131.200,246.187 131.200 C 245.851 131.200,245.468 131.478,245.338 131.817 M151.900 133.933 C 152.698 134.769,153.009 134.721,152.662 133.817 C 152.532 133.478,152.149 133.200,151.813 133.200 C 151.294 133.200,151.308 133.313,151.900 133.933 M241.338 133.817 C 240.991 134.721,241.302 134.769,242.100 133.933 C 242.692 133.313,242.706 133.200,242.187 133.200 C 241.851 133.200,241.468 133.478,241.338 133.817 M153.900 135.933 C 154.698 136.769,155.009 136.721,154.662 135.817 C 154.532 135.478,154.149 135.200,153.813 135.200 C 153.294 135.200,153.308 135.313,153.900 135.933 M239.338 135.817 C 238.991 136.721,239.302 136.769,240.100 135.933 C 240.692 135.313,240.706 135.200,240.187 135.200 C 239.851 135.200,239.468 135.478,239.338 135.817 M155.900 137.933 C 156.698 138.769,157.009 138.721,156.662 137.817 C 156.532 137.478,156.149 137.200,155.813 137.200 C 155.294 137.200,155.308 137.313,155.900 137.933 M237.338 137.817 C 236.991 138.721,237.302 138.769,238.100 137.933 C 238.692 137.313,238.706 137.200,238.187 137.200 C 237.851 137.200,237.468 137.478,237.338 137.817 M157.900 139.933 C 158.698 140.769,159.009 140.721,158.662 139.817 C 158.532 139.478,158.149 139.200,157.813 139.200 C 157.294 139.200,157.308 139.313,157.900 139.933 M235.338 139.817 C 234.991 140.721,235.302 140.769,236.100 139.933 C 236.692 139.313,236.706 139.200,236.187 139.200 C 235.851 139.200,235.468 139.478,235.338 139.817 M161.900 141.933 C 162.698 142.769,163.009 142.721,162.662 141.817 C 162.532 141.478,162.149 141.200,161.813 141.200 C 161.294 141.200,161.308 141.313,161.900 141.933 M231.338 141.817 C 230.991 142.721,231.302 142.769,232.100 141.933 C 232.692 141.313,232.706 141.200,232.187 141.200 C 231.851 141.200,231.468 141.478,231.338 141.817 M163.900 143.933 C 164.698 144.769,165.009 144.721,164.662 143.817 C 164.532 143.478,164.149 143.200,163.813 143.200 C 163.294 143.200,163.308 143.313,163.900 143.933 M229.338 143.817 C 228.991 144.721,229.302 144.769,230.100 143.933 C 230.692 143.313,230.706 143.200,230.187 143.200 C 229.851 143.200,229.468 143.478,229.338 143.817 M165.900 145.933 C 166.698 146.769,167.009 146.721,166.662 145.817 C 166.532 145.478,166.149 145.200,165.813 145.200 C 165.294 145.200,165.308 145.313,165.900 145.933 M227.338 145.817 C 226.991 146.721,227.302 146.769,228.100 145.933 C 228.692 145.313,228.706 145.200,228.187 145.200 C 227.851 145.200,227.468 145.478,227.338 145.817 M169.900 147.933 C 170.698 148.769,171.009 148.721,170.662 147.817 C 170.532 147.478,170.149 147.200,169.813 147.200 C 169.294 147.200,169.308 147.313,169.900 147.933 M223.338 147.817 C 222.991 148.721,223.302 148.769,224.100 147.933 C 224.692 147.313,224.706 147.200,224.187 147.200 C 223.851 147.200,223.468 147.478,223.338 147.817 M171.900 149.933 C 172.698 150.769,173.009 150.721,172.662 149.817 C 172.532 149.478,172.149 149.200,171.813 149.200 C 171.294 149.200,171.308 149.313,171.900 149.933 M221.338 149.817 C 220.991 150.721,221.302 150.769,222.100 149.933 C 222.692 149.313,222.706 149.200,222.187 149.200 C 221.851 149.200,221.468 149.478,221.338 149.817 M173.900 151.933 C 174.698 152.769,175.009 152.721,174.662 151.817 C 174.532 151.478,174.149 151.200,173.813 151.200 C 173.294 151.200,173.308 151.313,173.900 151.933 M219.338 151.817 C 218.991 152.721,219.302 152.769,220.100 151.933 C 220.692 151.313,220.706 151.200,220.187 151.200 C 219.851 151.200,219.468 151.478,219.338 151.817 M175.900 153.933 C 176.698 154.769,177.009 154.721,176.662 153.817 C 176.532 153.478,176.149 153.200,175.813 153.200 C 175.294 153.200,175.308 153.313,175.900 153.933 M217.338 153.817 C 216.991 154.721,217.302 154.769,218.100 153.933 C 218.692 153.313,218.706 153.200,218.187 153.200 C 217.851 153.200,217.468 153.478,217.338 153.817 M179.900 155.933 C 180.698 156.769,181.009 156.721,180.662 155.817 C 180.532 155.478,180.149 155.200,179.813 155.200 C 179.294 155.200,179.308 155.313,179.900 155.933 M213.338 155.817 C 212.991 156.721,213.302 156.769,214.100 155.933 C 214.692 155.313,214.706 155.200,214.187 155.200 C 213.851 155.200,213.468 155.478,213.338 155.817 M181.900 157.933 C 182.698 158.769,183.009 158.721,182.662 157.817 C 182.532 157.478,182.149 157.200,181.813 157.200 C 181.294 157.200,181.308 157.313,181.900 157.933 M211.338 157.817 C 210.991 158.721,211.302 158.769,212.100 157.933 C 212.692 157.313,212.706 157.200,212.187 157.200 C 211.851 157.200,211.468 157.478,211.338 157.817 M183.900 159.933 C 184.698 160.769,185.009 160.721,184.662 159.817 C 184.532 159.478,184.149 159.200,183.813 159.200 C 183.294 159.200,183.308 159.313,183.900 159.933 M209.338 159.817 C 208.991 160.721,209.302 160.769,210.100 159.933 C 210.692 159.313,210.706 159.200,210.187 159.200 C 209.851 159.200,209.468 159.478,209.338 159.817 M185.900 161.933 C 186.698 162.769,187.009 162.721,186.662 161.817 C 186.532 161.478,186.149 161.200,185.813 161.200 C 185.294 161.200,185.308 161.313,185.900 161.933 M207.338 161.817 C 206.991 162.721,207.302 162.769,208.100 161.933 C 208.692 161.313,208.706 161.200,208.187 161.200 C 207.851 161.200,207.468 161.478,207.338 161.817 M189.900 163.933 C 190.698 164.769,191.009 164.721,190.662 163.817 C 190.532 163.478,190.149 163.200,189.813 163.200 C 189.294 163.200,189.308 163.313,189.900 163.933 M203.338 163.817 C 202.991 164.721,203.302 164.769,204.100 163.933 C 204.692 163.313,204.706 163.200,204.187 163.200 C 203.851 163.200,203.468 163.478,203.338 163.817 M191.900 165.933 C 192.698 166.769,193.009 166.721,192.662 165.817 C 192.532 165.478,192.149 165.200,191.813 165.200 C 191.294 165.200,191.308 165.313,191.900 165.933 M201.338 165.817 C 200.991 166.721,201.302 166.769,202.100 165.933 C 202.692 165.313,202.706 165.200,202.187 165.200 C 201.851 165.200,201.468 165.478,201.338 165.817 M193.900 167.933 C 194.698 168.769,195.009 168.721,194.662 167.817 C 194.532 167.478,194.149 167.200,193.813 167.200 C 193.294 167.200,193.308 167.313,193.900 167.933 M199.338 167.817 C 198.991 168.721,199.302 168.769,200.100 167.933 C 200.692 167.313,200.706 167.200,200.187 167.200 C 199.851 167.200,199.468 167.478,199.338 167.817 M195.900 169.933 C 196.698 170.769,197.009 170.721,196.662 169.817 C 196.532 169.478,196.149 169.200,195.813 169.200 C 195.294 169.200,195.308 169.313,195.900 169.933 M197.338 169.817 C 196.991 170.721,197.302 170.769,198.100 169.933 C 198.692 169.313,198.706 169.200,198.187 169.200 C 197.851 169.200,197.468 169.478,197.338 169.817 M135.200 267.813 C 135.200 268.149,135.478 268.532,135.817 268.662 C 136.721 269.009,136.769 268.698,135.933 267.900 C 135.313 267.308,135.200 267.294,135.200 267.813 M257.900 268.067 C 257.308 268.687,257.294 268.800,257.813 268.800 C 258.149 268.800,258.532 268.522,258.662 268.183 C 259.009 267.279,258.698 267.231,257.900 268.067 M137.200 269.813 C 137.200 270.149,137.478 270.532,137.817 270.662 C 138.721 271.009,138.769 270.698,137.933 269.900 C 137.313 269.308,137.200 269.294,137.200 269.813 M255.900 270.067 C 255.308 270.687,255.294 270.800,255.813 270.800 C 256.149 270.800,256.532 270.522,256.662 270.183 C 257.009 269.279,256.698 269.231,255.900 270.067 M139.200 271.813 C 139.200 272.149,139.478 272.532,139.817 272.662 C 140.721 273.009,140.769 272.698,139.933 271.900 C 139.313 271.308,139.200 271.294,139.200 271.813 M253.900 272.067 C 253.308 272.687,253.294 272.800,253.813 272.800 C 254.149 272.800,254.532 272.522,254.662 272.183 C 255.009 271.279,254.698 271.231,253.900 272.067 M141.200 273.813 C 141.200 274.149,141.478 274.532,141.817 274.662 C 142.721 275.009,142.769 274.698,141.933 273.900 C 141.313 273.308,141.200 273.294,141.200 273.813 M251.900 274.067 C 251.308 274.687,251.294 274.800,251.813 274.800 C 252.149 274.800,252.532 274.522,252.662 274.183 C 253.009 273.279,252.698 273.231,251.900 274.067 M143.200 275.813 C 143.200 276.149,143.478 276.532,143.817 276.662 C 144.721 277.009,144.769 276.698,143.933 275.900 C 143.313 275.308,143.200 275.294,143.200 275.813 M249.900 276.067 C 249.308 276.687,249.294 276.800,249.813 276.800 C 250.149 276.800,250.532 276.522,250.662 276.183 C 251.009 275.279,250.698 275.231,249.900 276.067 M147.200 277.813 C 147.200 278.149,147.478 278.532,147.817 278.662 C 148.721 279.009,148.769 278.698,147.933 277.900 C 147.313 277.308,147.200 277.294,147.200 277.813 M245.900 278.067 C 245.308 278.687,245.294 278.800,245.813 278.800 C 246.149 278.800,246.532 278.522,246.662 278.183 C 247.009 277.279,246.698 277.231,245.900 278.067 M149.200 279.813 C 149.200 280.149,149.478 280.532,149.817 280.662 C 150.721 281.009,150.769 280.698,149.933 279.900 C 149.313 279.308,149.200 279.294,149.200 279.813 M243.900 280.067 C 243.308 280.687,243.294 280.800,243.813 280.800 C 244.149 280.800,244.532 280.522,244.662 280.183 C 245.009 279.279,244.698 279.231,243.900 280.067 M151.200 281.813 C 151.200 282.149,151.478 282.532,151.817 282.662 C 152.721 283.009,152.769 282.698,151.933 281.900 C 151.313 281.308,151.200 281.294,151.200 281.813 M241.900 282.067 C 241.308 282.687,241.294 282.800,241.813 282.800 C 242.149 282.800,242.532 282.522,242.662 282.183 C 243.009 281.279,242.698 281.231,241.900 282.067 M153.200 283.813 C 153.200 284.149,153.478 284.532,153.817 284.662 C 154.721 285.009,154.769 284.698,153.933 283.900 C 153.313 283.308,153.200 283.294,153.200 283.813 M239.900 284.067 C 239.308 284.687,239.294 284.800,239.813 284.800 C 240.149 284.800,240.532 284.522,240.662 284.183 C 241.009 283.279,240.698 283.231,239.900 284.067 M157.200 285.813 C 157.200 286.149,157.478 286.532,157.817 286.662 C 158.721 287.009,158.769 286.698,157.933 285.900 C 157.313 285.308,157.200 285.294,157.200 285.813 M235.900 286.067 C 235.308 286.687,235.294 286.800,235.813 286.800 C 236.149 286.800,236.532 286.522,236.662 286.183 C 237.009 285.279,236.698 285.231,235.900 286.067 M159.200 287.813 C 159.200 288.149,159.478 288.532,159.817 288.662 C 160.721 289.009,160.769 288.698,159.933 287.900 C 159.313 287.308,159.200 287.294,159.200 287.813 M233.900 288.067 C 233.308 288.687,233.294 288.800,233.813 288.800 C 234.149 288.800,234.532 288.522,234.662 288.183 C 235.009 287.279,234.698 287.231,233.900 288.067 M161.200 289.813 C 161.200 290.149,161.478 290.532,161.817 290.662 C 162.721 291.009,162.769 290.698,161.933 289.900 C 161.313 289.308,161.200 289.294,161.200 289.813 M231.900 290.067 C 231.308 290.687,231.294 290.800,231.813 290.800 C 232.149 290.800,232.532 290.522,232.662 290.183 C 233.009 289.279,232.698 289.231,231.900 290.067 M167.200 293.813 C 167.200 294.149,167.478 294.532,167.817 294.662 C 168.721 295.009,168.769 294.698,167.933 293.900 C 167.313 293.308,167.200 293.294,167.200 293.813 M225.900 294.067 C 225.308 294.687,225.294 294.800,225.813 294.800 C 226.149 294.800,226.532 294.522,226.662 294.183 C 227.009 293.279,226.698 293.231,225.900 294.067 M169.200 295.813 C 169.200 296.149,169.478 296.532,169.817 296.662 C 170.721 297.009,170.769 296.698,169.933 295.900 C 169.313 295.308,169.200 295.294,169.200 295.813 M223.900 296.067 C 223.308 296.687,223.294 296.800,223.813 296.800 C 224.149 296.800,224.532 296.522,224.662 296.183 C 225.009 295.279,224.698 295.231,223.900 296.067 M171.200 297.813 C 171.200 298.149,171.478 298.532,171.817 298.662 C 172.721 299.009,172.769 298.698,171.933 297.900 C 171.313 297.308,171.200 297.294,171.200 297.813 M221.900 298.067 C 221.308 298.687,221.294 298.800,221.813 298.800 C 222.149 298.800,222.532 298.522,222.662 298.183 C 223.009 297.279,222.698 297.231,221.900 298.067 M174.289 298.513 C 174.018 299.218,175.368 300.800,176.241 300.800 C 176.897 300.800,176.891 300.750,176.176 300.170 C 175.749 299.824,175.625 299.655,175.900 299.794 C 176.599 300.148,176.524 299.865,175.653 298.861 C 174.789 297.865,174.560 297.806,174.289 298.513 M218.582 298.515 C 217.700 299.538,217.454 300.135,218.038 299.832 C 218.347 299.672,218.251 299.824,217.824 300.170 C 217.109 300.750,217.103 300.800,217.759 300.800 C 218.632 300.800,219.982 299.218,219.711 298.513 C 219.469 297.881,219.128 297.882,218.582 298.515 M177.200 301.813 C 177.200 302.149,177.478 302.532,177.817 302.662 C 178.721 303.009,178.769 302.698,177.933 301.900 C 177.313 301.308,177.200 301.294,177.200 301.813 M215.900 302.067 C 215.308 302.687,215.294 302.800,215.813 302.800 C 216.149 302.800,216.532 302.522,216.662 302.183 C 217.009 301.279,216.698 301.231,215.900 302.067 M179.200 303.813 C 179.200 304.149,179.478 304.532,179.817 304.662 C 180.721 305.009,180.769 304.698,179.933 303.900 C 179.313 303.308,179.200 303.294,179.200 303.813 M213.900 304.067 C 213.308 304.687,213.294 304.800,213.813 304.800 C 214.149 304.800,214.532 304.522,214.662 304.183 C 215.009 303.279,214.698 303.231,213.900 304.067 M181.200 305.813 C 181.200 306.149,181.478 306.532,181.817 306.662 C 182.721 307.009,182.769 306.698,181.933 305.900 C 181.313 305.308,181.200 305.294,181.200 305.813 M211.900 306.067 C 211.308 306.687,211.294 306.800,211.813 306.800 C 212.149 306.800,212.532 306.522,212.662 306.183 C 213.009 305.279,212.698 305.231,211.900 306.067 M185.200 307.813 C 185.200 308.149,185.478 308.532,185.817 308.662 C 186.721 309.009,186.769 308.698,185.933 307.900 C 185.313 307.308,185.200 307.294,185.200 307.813 M207.900 308.067 C 207.308 308.687,207.294 308.800,207.813 308.800 C 208.149 308.800,208.532 308.522,208.662 308.183 C 209.009 307.279,208.698 307.231,207.900 308.067 M187.200 309.813 C 187.200 310.149,187.478 310.532,187.817 310.662 C 188.721 311.009,188.769 310.698,187.933 309.900 C 187.313 309.308,187.200 309.294,187.200 309.813 M205.900 310.067 C 205.308 310.687,205.294 310.800,205.813 310.800 C 206.149 310.800,206.532 310.522,206.662 310.183 C 207.009 309.279,206.698 309.231,205.900 310.067 M189.200 311.813 C 189.200 312.149,189.478 312.532,189.817 312.662 C 190.721 313.009,190.769 312.698,189.933 311.900 C 189.313 311.308,189.200 311.294,189.200 311.813 M203.900 312.067 C 203.308 312.687,203.294 312.800,203.813 312.800 C 204.149 312.800,204.532 312.522,204.662 312.183 C 205.009 311.279,204.698 311.231,203.900 312.067 M191.200 313.813 C 191.200 314.149,191.478 314.532,191.817 314.662 C 192.721 315.009,192.769 314.698,191.933 313.900 C 191.313 313.308,191.200 313.294,191.200 313.813 M201.900 314.067 C 201.308 314.687,201.294 314.800,201.813 314.800 C 202.149 314.800,202.532 314.522,202.662 314.183 C 203.009 313.279,202.698 313.231,201.900 314.067 M195.200 315.813 C 195.200 316.149,195.478 316.532,195.817 316.662 C 196.721 317.009,196.769 316.698,195.933 315.900 C 195.313 315.308,195.200 315.294,195.200 315.813 M197.900 316.067 C 197.308 316.687,197.294 316.800,197.813 316.800 C 198.149 316.800,198.532 316.522,198.662 316.183 C 199.009 315.279,198.698 315.231,197.900 316.067 " stroke="none" fill="#a8eccc" fill-rule="evenodd"></path></g></svg>