<?xml version="1.0" standalone="no"?>
<!DOCTYPE svg PUBLIC "-//W3C//DTD SVG 20010904//EN"
 "http://www.w3.org/TR/2001/REC-SVG-20010904/DTD/svg10.dtd">
<svg version="1.0" xmlns="http://www.w3.org/2000/svg"
 width="250.000000pt" height="280.000000pt" viewBox="0 0 250.000000 280.000000"
 preserveAspectRatio="xMidYMid meet">
<metadata>
Created by potrace 1.16, written by Peter Selinger 2001-2019
</metadata>
<g transform="translate(0.000000,280.000000) scale(0.100000,-0.100000)"
fill="#000000" stroke="none">
<path d="M1028 2674 c-164 -35 -258 -106 -258 -194 l0 -30 -325 0 -325 0 0
-120 0 -120 1130 0 1130 0 0 120 0 120 -375 0 -375 0 0 40 c0 141 -330 242
-602 184z m252 -105 c65 -14 110 -51 110 -90 l0 -29 -190 0 -190 0 0 28 c0 75
135 120 270 91z"/>
<path d="M120 1448 c0 -398 4 -751 9 -785 24 -163 124 -283 325 -388 168 -89
376 -138 651 -155 566 -35 1057 138 1193 422 39 80 42 148 42 901 l0 727
-1110 0 -1110 0 0 -722z m1823 425 c4 -38 7 -319 7 -625 l0 -558 -42 -31 c-59
-42 -103 -64 -192 -94 -135 -45 -219 -57 -441 -62 -181 -4 -227 -2 -331 15
-189 33 -394 116 -424 173 -6 11 -10 255 -10 633 l0 616 714 0 713 0 6 -67z"/>
<path d="M1150 1195 l0 -615 80 0 80 0 0 615 0 615 -80 0 -80 0 0 -615z"/>
<path d="M680 1240 l0 -520 75 0 75 0 0 520 0 520 -75 0 -75 0 0 -520z"/>
<path d="M1640 1230 l0 -530 70 0 70 0 0 530 0 530 -70 0 -70 0 0 -530z"/>
</g>
</svg>
